<mxfile host="app.diagrams.net" agent="Mozilla/5.0 (Windows NT 10.0; Win64; x64) AppleWebKit/537.36 (KHTML, like Gecko) Chrome/128.0.0.0 Safari/537.36 Edg/128.0.0.0" version="24.7.8">
  <diagram name="Page-1" id="EU_9g6YKppFDLxQ-yd42">
    <mxGraphModel dx="1042" dy="533" grid="1" gridSize="10" guides="1" tooltips="1" connect="1" arrows="1" fold="1" page="1" pageScale="1" pageWidth="850" pageHeight="1100" math="0" shadow="0">
      <root>
        <mxCell id="0" />
        <mxCell id="1" parent="0" />
        <mxCell id="SAXbf2U_s-x0KDOaSMLF-8" value="" style="edgeStyle=orthogonalEdgeStyle;rounded=0;orthogonalLoop=1;jettySize=auto;html=1;" edge="1" parent="1" source="SAXbf2U_s-x0KDOaSMLF-1" target="SAXbf2U_s-x0KDOaSMLF-3">
          <mxGeometry relative="1" as="geometry" />
        </mxCell>
        <mxCell id="SAXbf2U_s-x0KDOaSMLF-1" value="start" style="rounded=1;whiteSpace=wrap;html=1;" vertex="1" parent="1">
          <mxGeometry x="390" y="30" width="120" height="60" as="geometry" />
        </mxCell>
        <mxCell id="SAXbf2U_s-x0KDOaSMLF-2" value="end" style="rounded=1;whiteSpace=wrap;html=1;" vertex="1" parent="1">
          <mxGeometry x="390" y="670" width="120" height="60" as="geometry" />
        </mxCell>
        <mxCell id="SAXbf2U_s-x0KDOaSMLF-9" value="" style="edgeStyle=orthogonalEdgeStyle;rounded=0;orthogonalLoop=1;jettySize=auto;html=1;" edge="1" parent="1" source="SAXbf2U_s-x0KDOaSMLF-3">
          <mxGeometry relative="1" as="geometry">
            <mxPoint x="450" y="260" as="targetPoint" />
          </mxGeometry>
        </mxCell>
        <mxCell id="SAXbf2U_s-x0KDOaSMLF-3" value="x: float = float(input)&lt;div&gt;what&#39;s your height?&lt;/div&gt;" style="shape=card;whiteSpace=wrap;html=1;" vertex="1" parent="1">
          <mxGeometry x="360" y="130" width="180" height="100" as="geometry" />
        </mxCell>
        <mxCell id="SAXbf2U_s-x0KDOaSMLF-17" value="" style="edgeStyle=orthogonalEdgeStyle;rounded=0;orthogonalLoop=1;jettySize=auto;html=1;" edge="1" parent="1" source="SAXbf2U_s-x0KDOaSMLF-14" target="SAXbf2U_s-x0KDOaSMLF-16">
          <mxGeometry relative="1" as="geometry" />
        </mxCell>
        <mxCell id="SAXbf2U_s-x0KDOaSMLF-14" value="y: float = float(input)&lt;div&gt;what&#39;s your brother&#39;s height?&lt;/div&gt;" style="shape=card;whiteSpace=wrap;html=1;" vertex="1" parent="1">
          <mxGeometry x="360" y="260" width="180" height="100" as="geometry" />
        </mxCell>
        <mxCell id="SAXbf2U_s-x0KDOaSMLF-19" value="" style="edgeStyle=orthogonalEdgeStyle;rounded=0;orthogonalLoop=1;jettySize=auto;html=1;" edge="1" parent="1" source="SAXbf2U_s-x0KDOaSMLF-16" target="SAXbf2U_s-x0KDOaSMLF-18">
          <mxGeometry relative="1" as="geometry" />
        </mxCell>
        <mxCell id="SAXbf2U_s-x0KDOaSMLF-16" value="diff: float&amp;nbsp;&lt;div&gt;x-y&lt;/div&gt;" style="rounded=0;whiteSpace=wrap;html=1;" vertex="1" parent="1">
          <mxGeometry x="370" y="420" width="160" height="60" as="geometry" />
        </mxCell>
        <mxCell id="SAXbf2U_s-x0KDOaSMLF-20" value="" style="edgeStyle=orthogonalEdgeStyle;rounded=0;orthogonalLoop=1;jettySize=auto;html=1;" edge="1" parent="1" source="SAXbf2U_s-x0KDOaSMLF-18" target="SAXbf2U_s-x0KDOaSMLF-2">
          <mxGeometry relative="1" as="geometry" />
        </mxCell>
        <mxCell id="SAXbf2U_s-x0KDOaSMLF-18" value="print(diff)" style="shape=document;whiteSpace=wrap;html=1;boundedLbl=1;rounded=0;" vertex="1" parent="1">
          <mxGeometry x="390" y="540" width="120" height="80" as="geometry" />
        </mxCell>
      </root>
    </mxGraphModel>
  </diagram>
</mxfile>
